<svg width="45" height="54" viewBox="0 0 45 54" fill="none" xmlns="http://www.w3.org/2000/svg">
<path d="M32.2398 36.9367C32.7363 36.9367 32.7843 36.8006 33.0045 36.6685C35.6863 35.0594 37.2954 32.9139 37.5637 30.2321C37.8319 27.5503 37.5637 11.9956 37.5637 11.9956H6.72256V26.2093M32.2398 36.9367C30.0158 35.883 27.6966 32.4684 28.1772 28.623V26.2093H6.72256M32.2398 36.9367L5.11337 37.2049C4.30882 37.2049 3.77253 37.2049 2.16343 36.1321C0.876151 35.2739 0.911909 29.1594 1.0907 26.2093H6.72256M32.2398 36.9367H36.2227M16.3771 30.7685H24.6908" stroke="black" stroke-width="0.536367"/>
<path d="M25.7634 33.1821H16.377" stroke="black" stroke-width="0.536367"/>
<path d="M13.6956 34.523V29.9639H4.04102V31.8412C4.04102 32.4848 4.04102 34.523 4.84557 34.523H13.6956Z" fill="#D9D9D9"/>
<path d="M36.2231 39.6185H12.6229V46.5913H36.2231V39.6185Z" fill="#D9D9D9"/>
<path d="M12.6221 49.5413H36.4904" stroke="black" stroke-width="0.536367"/>
<path d="M9.4043 11.7274V8.77734H40.2454V53.0276H9.4043V37.7412" stroke="black" stroke-width="0.536367"/>
<path d="M11.5498 8.77727V4.48633H42.1227V49.0048H40.7818" stroke="black" stroke-width="0.536367"/>
<path d="M13.1592 4.2182V1H44.0003V45.2503H42.3912" stroke="black" stroke-width="0.536367"/>
<path d="M9.94043 24.0637H34.077" stroke="black" stroke-width="0.536367"/>
<path d="M28.4453 26.4775L33.809 26.4775" stroke="black" stroke-width="0.536367"/>
<path d="M28.4453 29.1592L33.809 29.1592" stroke="black" stroke-width="0.536367"/>
<path d="M28.4453 31.3047L33.809 31.3047" stroke="black" stroke-width="0.536367"/>
<path d="M28.9814 33.4502L31.1269 33.4502" stroke="black" stroke-width="0.536367"/>
<path d="M10.1944 14.8853H12.6241C13.108 14.8853 13.5267 14.9577 13.8802 15.1026C14.2366 15.2475 14.5104 15.4619 14.7016 15.7459C14.8929 16.0298 14.9885 16.3804 14.9885 16.7977C14.9885 17.1454 14.932 17.441 14.819 17.6844C14.706 17.9277 14.5466 18.1291 14.3409 18.2885C14.138 18.4479 13.9004 18.5768 13.6281 18.6753L13.1674 18.9274H11.0985L11.0898 17.8278H12.6284C12.8399 17.8278 13.0152 17.7901 13.1543 17.7148C13.2934 17.6394 13.3977 17.5337 13.4673 17.3975C13.5397 17.2584 13.5759 17.0961 13.5759 16.9107C13.5759 16.7195 13.5397 16.5543 13.4673 16.4152C13.3948 16.2761 13.2876 16.1704 13.1456 16.0979C13.0065 16.0226 12.8327 15.9849 12.6241 15.9849H11.6113V21.2136H10.1944V14.8853ZM13.6976 21.2136L12.2763 18.4015L13.7715 18.3972L15.2145 21.1484V21.2136H13.6976Z" fill="black"/>
<path d="M20.9366 35.3275H16.3775H11.8184L16.3775 30.5002L20.9366 35.3275Z" fill="#428B60"/>
<path d="M21.7412 43.1049C20.8472 42.7473 17.0211 39.1894 16.3775 35.3275M16.3775 35.3275H20.9366L16.3775 30.5002L11.8184 35.3275H16.3775Z" stroke="#1976D2" stroke-width="2"/>
</svg>
